<?xml version="1.0" encoding="utf-8"?>
<!-- Generator: Adobe Illustrator 18.1.1, SVG Export Plug-In . SVG Version: 6.00 Build 0)  -->
<svg version="1.1" id="Layer_1" xmlns="http://www.w3.org/2000/svg" xmlns:xlink="http://www.w3.org/1999/xlink" x="0px" y="0px"
	 viewBox="0 0 411 70.9" enable-background="new 0 0 411 70.9" xml:space="preserve">
<g>
	<path fill="#3C3C3B" d="M50.4,39.3h11.4c-1.4,11.6-10.2,19.5-22.5,19.5c-13.5,0-23.8-9.8-23.8-23.4c0-13.5,10.2-23.4,23.8-23.4
		c12.3,0,21.1,7.9,22.5,19.5H50.4c-1.3-5.6-5.2-9.1-11.2-9.1c-7.3,0-12.4,5.5-12.4,12.9c0,7.5,5.1,12.9,12.4,12.9
		C45.1,48.4,49.1,44.9,50.4,39.3z"/>
	<path fill="#3C3C3B" d="M101.9,57.9H68.6V13h11.2v35h22.2V57.9z"/>
	<path fill="#3C3C3B" d="M118.4,57.9h-11.2V13h11.2V57.9z"/>
	<path fill="#3C3C3B" d="M160.1,39.3h11.4c-1.4,11.6-10.2,19.5-22.5,19.5c-13.5,0-23.8-9.8-23.8-23.4c0-13.5,10.2-23.4,23.8-23.4
		c12.3,0,21.1,7.9,22.5,19.5h-11.4c-1.3-5.6-5.2-9.1-11.2-9.1c-7.3,0-12.4,5.5-12.4,12.9c0,7.5,5.1,12.9,12.4,12.9
		C154.9,48.4,158.8,44.9,160.1,39.3z"/>
	<path fill="#3C3C3B" d="M189.5,48.8v9.1h-11.2V13h11.2v20.4L207.4,13h13.2l-17.1,19.7L222,57.9h-13.6l-12.5-16.5L189.5,48.8z"/>
	<path fill="#8BC832" d="M256.4,52.4c-4,4.2-8.7,6.4-14.6,6.4c-9.5,0-15.8-5.4-15.8-13.1c0-6.1,4.1-10.4,9.4-12.5
		c-3-3.3-4.4-6-4.4-9.4c0-6.9,5.4-11.7,12.9-11.7c7,0,12,4.4,12.8,11.8h-4.5c-0.7-5.1-4-7.7-8.4-7.7c-4.8,0-8.1,3.2-8.1,7.7
		c0,4.9,4.1,8.3,11.9,15.1l8.4,7.5l7.3-10.2h4.7l-8.6,12.6l-0.3,0.4l9.8,8.7h-6.1L256.4,52.4z M253.3,49.7l-9.6-8.6
		c-2.1-1.9-4-3.5-5.5-5c-4.6,1.7-7.9,5-7.9,9.5c0,5.2,4.6,9.2,11.4,9.2C246.3,54.7,250.1,53,253.3,49.7z"/>
	<path fill="#3C3C3B" d="M292.6,13c11.7,0,19,6.3,19,16.4c0,10.5-7.7,17-19.9,17h-6v11.4h-11.1V13H292.6z M292.4,36.7
		c4.9,0,8.1-2.8,8.1-7.3c0-4-3.2-6.6-8.1-6.6h-6.7v13.9H292.4z"/>
	<path fill="#3C3C3B" d="M322.6,50.2l-3,7.7h-11.9l19.1-45.1h10.6l19,45.1h-11.8l-3-7.7H322.6z M332.1,25.8l-5.8,14.9h11.6
		L332.1,25.8z"/>
	<path fill="#3C3C3B" d="M377.8,44.4v13.5h-11.2V44.4L348.9,13h12.3l11,19.5l11-19.5h12.3L377.8,44.4z"/>
</g>
</svg>
